<?xml version="1.0" encoding="utf-8"?>
<!-- Generator: Adobe Illustrator 24.2.1, SVG Export Plug-In . SVG Version: 6.00 Build 0)  -->
<svg version="1.1" id="Layer_1" xmlns="http://www.w3.org/2000/svg" xmlns:xlink="http://www.w3.org/1999/xlink" x="0px" y="0px"
	 viewBox="0 0 292.6 57.07" style="enable-background:new 0 0 292.6 57.07;" xml:space="preserve">
<style type="text/css">
	.st0{fill:#2B388B;}
	.st1{fill:#EB2227;}
	.st2{fill:#FCEE1F;}
	.st3{fill:#2A3478;}
	.st4{fill:#D22028;}
</style>
<g>
	<g>
		<path class="st0" d="M28.37,0.3v2c14.27,0,26.03,11.61,26.22,25.88c0.19,14.46-11.41,26.38-25.87,26.58l-0.36,0
			c-14.27,0-26.03-11.61-26.22-25.88c-0.09-7.01,2.55-13.63,7.43-18.65C14.45,5.22,21,2.4,28.01,2.31l0.36,0L28.37,0.3 M28.37,0.3
			c-0.13,0-0.26,0-0.39,0C12.39,0.52-0.07,13.32,0.13,28.91c0.21,15.46,12.8,27.85,28.22,27.85c0.13,0,0.26,0,0.39,0
			c15.59-0.21,28.06-13.02,27.85-28.6C56.38,12.7,43.78,0.3,28.37,0.3L28.37,0.3z"/>
	</g>
	<polygon class="st0" points="55.72,28.47 32.64,32.8 28.42,55.89 24.1,32.82 1,28.6 24.08,24.27 28.3,1.18 32.63,24.25 	"/>
	<polygon class="st1" points="46.18,28.49 31.15,31.31 28.4,46.36 25.58,31.32 10.54,28.57 25.57,25.76 28.32,10.71 31.14,25.74 	
		"/>
	<polygon class="st2" points="34.41,28.52 29.31,29.48 28.37,34.59 27.42,29.48 22.31,28.55 27.41,27.59 28.35,22.48 29.3,27.59 	
		"/>
</g>
<g>
	<g>
		<path class="st3" d="M60.72,11.16h16.25v4.22H66.8v3.14h9.44v4.03H66.8v3.9h10.47v4.48H60.72V11.16z"/>
		<path class="st3" d="M78.61,11.16h6.34l4.42,14.23l4.36-14.23h6.15l-7.29,19.77h-6.57L78.61,11.16z"/>
		<path class="st3" d="M101.9,11.16h5.66l7.39,10.94V11.16h5.72v19.77h-5.72l-7.35-10.86v10.86h-5.7V11.16z"/>
	</g>
</g>
<g>
	<g>
		<path class="st4" d="M130.32,10.81h6.18l-0.88,7.14h6.75l0.88-7.14h6.21l-2.5,20.4h-6.21l1.01-8.25h-6.75l-1.01,8.25h-6.18
			L130.32,10.81z"/>
		<path class="st4" d="M165.39,22.86l5.21,1.67c-0.55,1.55-1.29,2.85-2.2,3.88c-0.91,1.04-1.97,1.82-3.2,2.35
			c-1.23,0.53-2.73,0.79-4.52,0.79c-2.17,0-3.91-0.32-5.21-0.96c-1.3-0.65-2.35-1.78-3.15-3.4c-0.8-1.62-1.05-3.7-0.74-6.23
			c0.41-3.38,1.61-5.97,3.59-7.78c1.98-1.81,4.58-2.72,7.8-2.72c2.52,0,4.43,0.52,5.75,1.56c1.31,1.04,2.19,2.64,2.62,4.79
			l-5.61,1.24c-0.11-0.62-0.26-1.08-0.43-1.36c-0.29-0.48-0.67-0.85-1.14-1.12c-0.47-0.26-1.01-0.39-1.63-0.39
			c-1.4,0-2.54,0.57-3.43,1.72c-0.67,0.85-1.12,2.19-1.34,4.02c-0.28,2.26-0.13,3.81,0.44,4.65c0.57,0.84,1.46,1.26,2.68,1.26
			c1.18,0,2.12-0.34,2.8-1.02C164.4,25.13,164.96,24.15,165.39,22.86z"/>
		<path class="st4" d="M175.22,10.81h8.12l1.61,12.41l4.64-12.41h8.12l-2.5,20.4h-5.06l1.91-15.56l-5.81,15.56h-4.58l-1.98-15.56
			l-1.91,15.56h-5.06L175.22,10.81z"/>
		<path class="st4" d="M213.47,22.86l5.21,1.67c-0.55,1.55-1.29,2.85-2.2,3.88c-0.91,1.04-1.97,1.82-3.2,2.35
			c-1.23,0.53-2.73,0.79-4.52,0.79c-2.17,0-3.91-0.32-5.21-0.96c-1.3-0.65-2.35-1.78-3.15-3.4c-0.8-1.62-1.05-3.7-0.74-6.23
			c0.41-3.38,1.61-5.97,3.59-7.78c1.98-1.81,4.58-2.72,7.8-2.72c2.52,0,4.43,0.52,5.75,1.56c1.31,1.04,2.19,2.64,2.62,4.79
			l-5.61,1.24c-0.11-0.62-0.26-1.08-0.43-1.36c-0.29-0.48-0.67-0.85-1.14-1.12c-0.47-0.26-1.01-0.39-1.63-0.39
			c-1.4,0-2.54,0.57-3.43,1.72c-0.67,0.85-1.12,2.19-1.34,4.02c-0.28,2.26-0.13,3.81,0.44,4.65c0.57,0.84,1.46,1.26,2.68,1.26
			c1.18,0,2.12-0.34,2.8-1.02C212.49,25.13,213.04,24.15,213.47,22.86z"/>
	</g>
</g>
<g>
	<path d="M67.82,40.91h-3.2v8.88h-1.31v-8.88h-3.19v-1.07h7.7V40.91z"/>
	<path d="M68.09,46.02c0-0.72,0.14-1.38,0.43-1.96c0.29-0.58,0.68-1.03,1.19-1.34c0.51-0.31,1.09-0.47,1.74-0.47
		c1.01,0,1.82,0.35,2.44,1.05c0.62,0.7,0.93,1.62,0.93,2.78v0.09c0,0.72-0.14,1.37-0.41,1.94c-0.28,0.57-0.67,1.02-1.18,1.34
		c-0.51,0.32-1.1,0.48-1.77,0.48c-1,0-1.81-0.35-2.44-1.05c-0.62-0.7-0.93-1.62-0.93-2.77V46.02z M73.9,41.41l-1.16,0l-1.35-1.27
		l-1.35,1.27l-1.16,0l1.86-1.79h1.29L73.9,41.41z M69.36,46.17c0,0.82,0.19,1.48,0.57,1.98c0.38,0.5,0.89,0.75,1.53,0.75
		c0.64,0,1.15-0.25,1.53-0.76s0.57-1.21,0.57-2.12c0-0.81-0.19-1.47-0.58-1.97c-0.39-0.5-0.9-0.76-1.54-0.76
		c-0.62,0-1.13,0.25-1.51,0.75S69.36,45.25,69.36,46.17z M73.33,40.47l-0.01-0.9c0.3-0.02,0.51-0.06,0.65-0.12
		c0.13-0.06,0.2-0.16,0.2-0.31c0-0.31-0.32-0.46-0.96-0.46l0.03-0.63c0.58,0,1.03,0.1,1.33,0.3s0.46,0.47,0.46,0.8
		c0,0.27-0.08,0.48-0.25,0.63s-0.39,0.24-0.66,0.27l-0.01,0.41H73.33z"/>
	<path d="M77.6,42.39l0.04,0.93c0.57-0.71,1.3-1.07,2.21-1.07c1.56,0,2.35,0.88,2.37,2.65v4.89h-1.26V44.9
		c0-0.53-0.13-0.93-0.37-1.18c-0.24-0.26-0.61-0.38-1.12-0.38c-0.41,0-0.77,0.11-1.08,0.33s-0.55,0.51-0.72,0.86v5.27h-1.26v-7.4
		H77.6z"/>
	<path d="M83.83,46.03c0-1.15,0.27-2.07,0.8-2.75s1.24-1.02,2.12-1.02c0.9,0,1.61,0.32,2.11,0.96l0.06-0.82h1.16v7.22
		c0,0.96-0.28,1.71-0.85,2.26c-0.57,0.55-1.33,0.83-2.29,0.83c-0.53,0-1.05-0.11-1.57-0.34s-0.9-0.54-1.17-0.94l0.66-0.76
		c0.54,0.67,1.21,1,1.99,1c0.62,0,1.09-0.17,1.44-0.52c0.34-0.35,0.52-0.83,0.52-1.46v-0.64c-0.51,0.58-1.2,0.88-2.07,0.88
		c-0.87,0-1.57-0.35-2.1-1.05C84.1,48.18,83.83,47.23,83.83,46.03z M85.1,46.17c0,0.83,0.17,1.49,0.51,1.97s0.82,0.71,1.44,0.71
		c0.8,0,1.38-0.36,1.76-1.09v-3.38c-0.39-0.71-0.97-1.06-1.74-1.06c-0.62,0-1.1,0.24-1.44,0.72S85.1,45.24,85.1,46.17z"/>
	<path d="M98.42,48.9c0.45,0,0.85-0.14,1.18-0.41s0.52-0.62,0.56-1.03h1.2c-0.02,0.42-0.17,0.83-0.44,1.21s-0.63,0.69-1.08,0.92
		c-0.45,0.23-0.92,0.34-1.43,0.34c-1.01,0-1.81-0.34-2.4-1.01c-0.6-0.67-0.89-1.59-0.89-2.76v-0.21c0-0.72,0.13-1.36,0.4-1.92
		s0.64-1,1.14-1.31c0.49-0.31,1.08-0.46,1.75-0.46c0.83,0,1.52,0.25,2.07,0.75c0.55,0.5,0.84,1.14,0.88,1.93h-1.2
		c-0.04-0.48-0.22-0.87-0.54-1.18c-0.33-0.31-0.73-0.46-1.21-0.46c-0.64,0-1.14,0.23-1.49,0.69c-0.35,0.46-0.53,1.13-0.53,2.01v0.24
		c0,0.85,0.18,1.51,0.53,1.97S97.77,48.9,98.42,48.9z"/>
	<path d="M102.45,46.02c0-0.72,0.14-1.38,0.43-1.96c0.29-0.58,0.68-1.03,1.19-1.34c0.51-0.31,1.09-0.47,1.74-0.47
		c1.01,0,1.82,0.35,2.44,1.05c0.62,0.7,0.93,1.62,0.93,2.78v0.09c0,0.72-0.14,1.37-0.41,1.94c-0.28,0.57-0.67,1.02-1.18,1.34
		c-0.51,0.32-1.1,0.48-1.77,0.48c-1,0-1.81-0.35-2.44-1.05c-0.62-0.7-0.93-1.62-0.93-2.77V46.02z M107.83,41.16v0.07l-1.05,0
		l-1.03-1.16l-1.02,1.16l-1.05,0v-0.08l1.68-1.86h0.77L107.83,41.16z M103.72,46.17c0,0.82,0.19,1.48,0.57,1.98
		c0.38,0.5,0.89,0.75,1.53,0.75c0.64,0,1.15-0.25,1.53-0.76s0.57-1.21,0.57-2.12c0-0.81-0.19-1.47-0.58-1.97
		c-0.39-0.5-0.9-0.76-1.54-0.76c-0.62,0-1.13,0.25-1.51,0.75S103.72,45.25,103.72,46.17z"/>
	<path d="M111.96,42.39l0.04,0.93c0.57-0.71,1.3-1.07,2.21-1.07c1.56,0,2.35,0.88,2.37,2.65v4.89h-1.26V44.9
		c0-0.53-0.13-0.93-0.37-1.18c-0.24-0.26-0.61-0.38-1.12-0.38c-0.41,0-0.77,0.11-1.08,0.33s-0.55,0.51-0.72,0.86v5.27h-1.26v-7.4
		H111.96z"/>
	<path d="M118.19,46.03c0-1.15,0.27-2.07,0.8-2.75s1.24-1.02,2.12-1.02c0.9,0,1.61,0.32,2.11,0.96l0.06-0.82h1.16v7.22
		c0,0.96-0.28,1.71-0.85,2.26c-0.57,0.55-1.33,0.83-2.29,0.83c-0.53,0-1.05-0.11-1.57-0.34s-0.9-0.54-1.17-0.94l0.66-0.76
		c0.54,0.67,1.21,1,1.99,1c0.62,0,1.09-0.17,1.44-0.52c0.34-0.35,0.52-0.83,0.52-1.46v-0.64c-0.51,0.58-1.2,0.88-2.07,0.88
		c-0.87,0-1.57-0.35-2.1-1.05C118.46,48.18,118.19,47.23,118.19,46.03z M119.46,46.17c0,0.83,0.17,1.49,0.51,1.97
		s0.82,0.71,1.44,0.71c0.8,0,1.38-0.36,1.76-1.09v-3.38c-0.39-0.71-0.97-1.06-1.74-1.06c-0.62,0-1.1,0.24-1.44,0.72
		S119.46,45.24,119.46,46.17z"/>
	<path d="M131.53,40.6v1.79h1.38v0.98h-1.38v4.59c0,0.3,0.06,0.52,0.18,0.67c0.12,0.15,0.33,0.22,0.63,0.22
		c0.15,0,0.35-0.03,0.6-0.08v1.02c-0.33,0.09-0.66,0.14-0.97,0.14c-0.57,0-0.99-0.17-1.28-0.51s-0.43-0.83-0.43-1.46v-4.59h-1.35
		v-0.98h1.35V40.6H131.53z"/>
	<path d="M136.8,47.94l1.72-5.54h1.35l-2.97,8.54c-0.46,1.23-1.19,1.85-2.19,1.85l-0.24-0.02L134,52.67v-1.03l0.34,0.03
		c0.43,0,0.76-0.09,1-0.26c0.24-0.17,0.44-0.49,0.59-0.95l0.28-0.75l-2.64-7.31h1.38L136.8,47.94z"/>
	<path d="M151.69,41.36h-1.29v8.43h-1.16L149.18,49c-0.51,0.62-1.21,0.93-2.11,0.93c-0.86,0-1.55-0.35-2.1-1.05
		c-0.54-0.7-0.81-1.62-0.81-2.75v-0.1c0-1.13,0.27-2.05,0.81-2.74s1.24-1.04,2.11-1.04c0.87,0,1.55,0.3,2.06,0.89v-1.78h-1.8v-1.03
		h1.8v-1.04h1.26v1.04h1.29V41.36z M145.43,46.17c0,0.84,0.17,1.49,0.52,1.97s0.83,0.71,1.44,0.71c0.8,0,1.39-0.36,1.76-1.08v-3.4
		c-0.38-0.7-0.96-1.05-1.74-1.05c-0.62,0-1.1,0.24-1.45,0.72S145.43,45.24,145.43,46.17z"/>
	<path d="M152.84,40.43c0-0.21,0.06-0.38,0.19-0.52c0.12-0.14,0.31-0.21,0.56-0.21s0.43,0.07,0.56,0.21s0.19,0.31,0.19,0.52
		s-0.06,0.38-0.19,0.51s-0.31,0.21-0.56,0.21s-0.43-0.07-0.56-0.21C152.9,40.81,152.84,40.64,152.84,40.43z M154.21,49.79h-1.26
		v-7.4h1.26V49.79z"/>
	<path d="M159.3,49.93c-1,0-1.82-0.33-2.45-0.99s-0.94-1.54-0.94-2.64v-0.23c0-0.73,0.14-1.39,0.42-1.97
		c0.28-0.58,0.67-1.03,1.18-1.35c0.5-0.33,1.05-0.49,1.64-0.49c0.96,0,1.71,0.32,2.24,0.95s0.8,1.54,0.8,2.72v0.53h-5.01
		c0.02,0.73,0.23,1.32,0.64,1.77c0.41,0.45,0.93,0.67,1.56,0.67c0.45,0,0.83-0.09,1.13-0.27s0.58-0.42,0.81-0.72l0.77,0.6
		C161.47,49.45,160.54,49.93,159.3,49.93z M161.21,41.16v0.07l-1.05,0l-1.03-1.16l-1.02,1.16l-1.05,0v-0.08l1.68-1.86h0.77
		L161.21,41.16z M159.14,43.3c-0.51,0-0.94,0.19-1.29,0.56s-0.56,0.89-0.64,1.56h3.71v-0.1c-0.04-0.64-0.21-1.14-0.52-1.49
		S159.67,43.3,159.14,43.3z M158.36,51.47c0-0.21,0.06-0.38,0.19-0.52c0.13-0.14,0.31-0.21,0.56-0.21s0.43,0.07,0.56,0.21
		s0.19,0.31,0.19,0.52s-0.06,0.38-0.19,0.51s-0.31,0.21-0.56,0.21s-0.43-0.07-0.56-0.21C158.43,51.84,158.36,51.67,158.36,51.47z"/>
	<path d="M164.84,42.39l0.04,0.93c0.57-0.71,1.3-1.07,2.21-1.07c1.56,0,2.35,0.88,2.37,2.65v4.89h-1.26V44.9
		c0-0.53-0.13-0.93-0.37-1.18c-0.24-0.26-0.61-0.38-1.12-0.38c-0.41,0-0.77,0.11-1.08,0.33s-0.55,0.51-0.72,0.86v5.27h-1.26v-7.4
		H164.84z"/>
	<path d="M176.21,49.79h-1.26v-10.5h1.26V49.79z"/>
	<path d="M186.13,41.81c0,0.82-0.17,1.4-0.5,1.73c-0.33,0.33-0.87,0.51-1.6,0.53v5.72h-1.2l-0.03-0.73
		c-0.49,0.58-1.21,0.87-2.17,0.87c-0.79,0-1.39-0.23-1.8-0.69c-0.41-0.46-0.62-1.14-0.62-2.03v-4.81h1.26v4.78
		c0,1.12,0.46,1.68,1.37,1.68c0.97,0,1.61-0.36,1.93-1.08v-5.38h1.26v0.9c0.31-0.01,0.54-0.05,0.7-0.13s0.27-0.2,0.33-0.37
		c0.07-0.16,0.1-0.49,0.1-0.98H186.13z M180.34,51.47c0-0.21,0.06-0.38,0.19-0.52c0.12-0.14,0.31-0.21,0.56-0.21
		s0.43,0.07,0.56,0.21s0.19,0.31,0.19,0.52s-0.06,0.38-0.19,0.51s-0.31,0.21-0.56,0.21s-0.43-0.07-0.56-0.21
		C180.4,51.84,180.34,51.67,180.34,51.47z"/>
	<path d="M189.86,48.9c0.45,0,0.85-0.14,1.18-0.41s0.52-0.62,0.56-1.03h1.2c-0.02,0.42-0.17,0.83-0.44,1.21s-0.63,0.69-1.08,0.92
		c-0.45,0.23-0.92,0.34-1.43,0.34c-1.01,0-1.81-0.34-2.4-1.01c-0.6-0.67-0.89-1.59-0.89-2.76v-0.21c0-0.72,0.13-1.36,0.4-1.92
		s0.64-1,1.14-1.31c0.49-0.31,1.08-0.46,1.75-0.46c0.83,0,1.52,0.25,2.07,0.75c0.55,0.5,0.84,1.14,0.88,1.93h-1.2
		c-0.04-0.48-0.22-0.87-0.54-1.18c-0.33-0.31-0.73-0.46-1.21-0.46c-0.64,0-1.14,0.23-1.49,0.69c-0.35,0.46-0.53,1.13-0.53,2.01v0.24
		c0,0.85,0.18,1.51,0.53,1.97S189.21,48.9,189.86,48.9z"/>
	<path d="M204.49,40.91h-3.2v8.88h-1.31v-8.88h-3.19v-1.07h7.7V40.91z"/>
	<path d="M207.28,45.89v3.9h-1.31v-9.95h3.67c1.09,0,1.94,0.28,2.56,0.83c0.62,0.56,0.93,1.29,0.93,2.21c0,0.97-0.3,1.71-0.91,2.23
		c-0.6,0.52-1.47,0.78-2.59,0.78H207.28z M207.28,44.82h2.36c0.7,0,1.24-0.17,1.61-0.5c0.37-0.33,0.56-0.81,0.56-1.43
		c0-0.59-0.19-1.07-0.56-1.42s-0.89-0.54-1.54-0.55h-2.43V44.82z"/>
	<path d="M225.92,49.79h-1.32v-4.6h-5.02v4.6h-1.31v-9.95h1.31v4.28h5.02v-4.28h1.32V49.79z"/>
	<path d="M229.01,40.11l-0.96,0l-1.37-1.76h1.36L229.01,40.11z M227.71,46.02c0-0.72,0.14-1.38,0.43-1.96
		c0.29-0.58,0.68-1.03,1.19-1.34c0.51-0.31,1.09-0.47,1.74-0.47c1.01,0,1.82,0.35,2.44,1.05c0.62,0.7,0.93,1.62,0.93,2.78v0.09
		c0,0.72-0.14,1.37-0.41,1.94c-0.28,0.57-0.67,1.02-1.18,1.34c-0.51,0.32-1.1,0.48-1.77,0.48c-1,0-1.81-0.35-2.44-1.05
		c-0.62-0.7-0.93-1.62-0.93-2.77V46.02z M233.52,41.32l-1.35,0l-1.16-1.08l-1.16,1.08l-1.34,0l1.98-1.79h1.04L233.52,41.32z
		 M228.99,46.17c0,0.82,0.19,1.48,0.57,1.98c0.38,0.5,0.89,0.75,1.53,0.75c0.64,0,1.15-0.25,1.53-0.76s0.57-1.21,0.57-2.12
		c0-0.81-0.19-1.47-0.58-1.97c-0.39-0.5-0.9-0.76-1.54-0.76c-0.62,0-1.13,0.25-1.51,0.75S228.99,45.25,228.99,46.17z"/>
	<path d="M247.02,46.63c-0.12,1.05-0.51,1.87-1.17,2.44c-0.65,0.57-1.52,0.86-2.61,0.86c-1.18,0-2.12-0.42-2.83-1.26
		c-0.71-0.84-1.06-1.97-1.06-3.38v-0.96c0-0.93,0.17-1.74,0.5-2.44c0.33-0.7,0.8-1.24,1.41-1.62s1.31-0.56,2.11-0.56
		c1.06,0,1.91,0.29,2.54,0.89s1.01,1.41,1.11,2.45h-1.32c-0.11-0.8-0.36-1.37-0.74-1.73c-0.38-0.36-0.91-0.53-1.6-0.53
		c-0.84,0-1.5,0.31-1.97,0.93c-0.48,0.62-0.71,1.5-0.71,2.65v0.96c0,1.08,0.23,1.94,0.68,2.58c0.45,0.64,1.08,0.96,1.89,0.96
		c0.73,0,1.29-0.17,1.68-0.5c0.39-0.33,0.65-0.91,0.78-1.73H247.02z"/>
	<path d="M249.88,43.29c0.56-0.69,1.29-1.03,2.19-1.03c1.56,0,2.35,0.88,2.37,2.65v4.89h-1.26V44.9c0-0.53-0.13-0.93-0.37-1.18
		c-0.24-0.26-0.61-0.38-1.12-0.38c-0.41,0-0.77,0.11-1.08,0.33s-0.55,0.51-0.72,0.86v5.27h-1.26v-10.5h1.26V43.29z"/>
	<path d="M257.71,39.3h1.53l-1.83,2.01l-1.02,0L257.71,39.3z M257.7,49.79h-1.27v-7.4h1.27V49.79z"/>
	<path d="M265.14,39.84l3.25,8.12l3.25-8.12h1.7v9.95h-1.31v-3.88l0.12-4.18l-3.27,8.06h-1l-3.26-8.04l0.13,4.16v3.88h-1.31v-9.95
		H265.14z"/>
	<path d="M275.48,40.43c0-0.21,0.06-0.38,0.19-0.52c0.12-0.14,0.31-0.21,0.56-0.21s0.43,0.07,0.56,0.21s0.19,0.31,0.19,0.52
		s-0.06,0.38-0.19,0.51s-0.31,0.21-0.56,0.21s-0.43-0.07-0.56-0.21C275.54,40.81,275.48,40.64,275.48,40.43z M276.84,49.79h-1.26
		v-7.4h1.26V49.79z"/>
	<path d="M280.06,42.39l0.04,0.93c0.57-0.71,1.3-1.07,2.21-1.07c1.56,0,2.35,0.88,2.37,2.65v4.89h-1.26V44.9
		c0-0.53-0.13-0.93-0.37-1.18c-0.24-0.26-0.61-0.38-1.12-0.38c-0.41,0-0.77,0.11-1.08,0.33s-0.55,0.51-0.72,0.86v5.27h-1.26v-7.4
		H280.06z"/>
	<path d="M287.86,43.29c0.56-0.69,1.29-1.03,2.19-1.03c1.56,0,2.35,0.88,2.37,2.65v4.89h-1.26V44.9c0-0.53-0.13-0.93-0.37-1.18
		c-0.24-0.26-0.61-0.38-1.12-0.38c-0.41,0-0.77,0.11-1.08,0.33s-0.55,0.51-0.72,0.86v5.27h-1.26v-10.5h1.26V43.29z"/>
</g>
</svg>
